<svg width="388" height="28" viewBox="0 0 388 28" fill="none" xmlns="http://www.w3.org/2000/svg">
<path d="M11.8769 1.13676H15.5907L27.4308 27.0797H24.1582L21.2901 20.8608H6.14068L3.27258 27.0797H0L11.8769 1.13676ZM20.187 18.1377L13.7154 3.97025L7.24379 18.1377H20.187Z" fill="#FFD43D"/>
<path d="M35.2167 1.13676H39.7395L50.9545 24.0622L62.1327 1.13676H66.6922V27.0797H63.6403V4.96381L52.7194 27.0797H49.1895L38.2686 5.00061V27.0797H35.2167V1.13676Z" fill="#FFD43D"/>
<path d="M76.246 1.13676H90.7703C92.5598 1.13676 94.1655 1.48021 95.5873 2.16712C97.0091 2.85402 98.1122 3.81079 98.8966 5.0374C99.7056 6.26402 100.11 7.6501 100.11 9.19564C100.11 10.7412 99.7056 12.1273 98.8966 13.3539C98.0877 14.5805 96.9723 15.5373 95.5505 16.2242C94.1532 16.9111 92.5598 17.2545 90.7703 17.2545H79.2612V27.0797H76.246V1.13676ZM90.5497 14.5314C91.7754 14.5314 92.8785 14.3106 93.8591 13.8691C94.8641 13.4029 95.6486 12.7651 96.2124 11.9555C96.7762 11.1214 97.0581 10.2015 97.0581 9.19564C97.0581 8.18981 96.7762 7.28211 96.2124 6.47255C95.6731 5.63845 94.9009 5.00061 93.8958 4.55902C92.9153 4.09291 91.7999 3.85985 90.5497 3.85985H79.2612V14.5314H90.5497Z" fill="#FFD43D"/>
<path d="M108.298 1.13676H111.35V24.3566H126.463V27.0797H108.298V1.13676Z" fill="#FFD43D"/>
<path d="M134.282 1.13676H137.334V27.0797H134.282V1.13676Z" fill="#FFD43D"/>
<path d="M146.907 1.13676H166.947V3.85985H149.959V12.8019H164.778V15.4146H149.959V27.0797H146.907V1.13676Z" fill="#FFD43D"/>
<path d="M175.153 1.13676H178.205V27.0797H175.153V1.13676Z" fill="#FFD43D"/>
<path d="M187.778 1.13676H209.179V3.85985H190.757V12.3603H207.708V15.0098H190.757V24.3566H209.547V27.0797H187.778V1.13676Z" fill="#FFD43D"/>
<path d="M240.542 27.8157C239.537 27.8157 238.704 27.5336 238.042 26.9693C237.404 26.4051 236.914 25.6446 236.571 24.6878L234.696 19.4624C234.328 18.4811 233.789 17.6961 233.078 17.1073C232.367 16.5185 231.57 16.2242 230.688 16.2242H220.943V27.0797H217.891V1.13676H233.078C234.867 1.13676 236.461 1.45568 237.858 2.09352C239.28 2.73136 240.383 3.62679 241.167 4.77982C241.976 5.9083 242.381 7.18398 242.381 8.60686C242.381 9.80895 242.074 10.9129 241.461 11.9187C240.873 12.9246 240.027 13.7587 238.924 14.421C237.846 15.0834 236.62 15.4882 235.247 15.6354C236.375 16.3714 237.233 17.5489 237.821 19.168L239.365 23.6207C239.709 24.7001 240.272 25.2398 241.057 25.2398C241.474 25.2398 241.878 25.0926 242.27 24.7982C242.687 24.4793 243.043 24.0622 243.337 23.5471L244.881 25.3502C243.68 26.9939 242.234 27.8157 240.542 27.8157ZM232.967 13.5011C234.169 13.5011 235.247 13.2925 236.203 12.8755C237.184 12.4584 237.944 11.8942 238.483 11.1828C239.047 10.4468 239.329 9.62495 239.329 8.71726C239.329 7.26985 238.728 6.10456 237.527 5.2214C236.35 4.3137 234.83 3.85985 232.967 3.85985H220.943V13.5011H232.967Z" fill="#FFD43D"/>
<path d="M273.378 1.13676H284.997C287.988 1.13676 290.623 1.67647 292.903 2.7559C295.183 3.83532 296.948 5.35632 298.198 7.31891C299.448 9.2815 300.073 11.5507 300.073 14.1266C300.073 16.678 299.448 18.935 298.198 20.8976C296.948 22.8602 295.183 24.3812 292.903 25.4606C290.623 26.54 287.988 27.0797 284.997 27.0797H273.378V1.13676ZM284.997 24.3566C287.375 24.3566 289.471 23.9396 291.285 23.1055C293.099 22.2714 294.508 21.0816 295.513 19.536C296.519 17.9905 297.021 16.1874 297.021 14.1266C297.021 12.0414 296.519 10.226 295.513 8.68046C294.508 7.13492 293.099 5.9451 291.285 5.111C289.471 4.2769 287.375 3.85985 284.997 3.85985H276.43V24.3566H284.997Z" fill="#FFD43D"/>
<path d="M312.809 27.0797C314.427 18.0518 318.471 10.3119 324.943 3.85985H307.146V1.13676H328.326V3.63906C321.903 10.1401 317.895 17.9537 316.302 27.0797H312.809Z" fill="#FFD43D"/>
<path d="M347.645 27.9997C345.121 27.9997 342.878 27.4109 340.916 26.2334C338.98 25.0313 337.472 23.3753 336.394 21.2656C335.315 19.1558 334.776 16.7761 334.776 14.1266C334.776 11.4526 335.315 9.06071 336.394 6.95093C337.472 4.84115 338.98 3.19748 340.916 2.01992C342.878 0.817839 345.121 0.216797 347.645 0.216797C350.146 0.216797 352.364 0.817839 354.301 2.01992C356.262 3.19748 357.782 4.84115 358.86 6.95093C359.939 9.06071 360.478 11.4526 360.478 14.1266C360.478 16.7761 359.939 19.1558 358.86 21.2656C357.782 23.3753 356.262 25.0313 354.301 26.2334C352.364 27.4109 350.146 27.9997 347.645 27.9997ZM347.645 25.4238C349.582 25.4238 351.286 24.9454 352.757 23.9886C354.252 23.0074 355.404 21.6581 356.213 19.9408C357.022 18.2235 357.426 16.2855 357.426 14.1266C357.426 11.9678 357.022 10.0297 356.213 8.31247C355.404 6.57068 354.252 5.2214 352.757 4.26464C351.286 3.28334 349.582 2.79269 347.645 2.79269C345.709 2.79269 343.993 3.28334 342.498 4.26464C341.027 5.2214 339.875 6.55841 339.041 8.27567C338.232 9.99294 337.828 11.9433 337.828 14.1266C337.828 16.2855 338.232 18.2235 339.041 19.9408C339.875 21.6581 341.027 23.0074 342.498 23.9886C343.993 24.9454 345.709 25.4238 347.645 25.4238Z" fill="#FFD43D"/>
<path d="M372.209 27.0797C373.827 18.0518 377.872 10.3119 384.343 3.85985H366.546V1.13676H387.726V3.63906C381.304 10.1401 377.296 17.9537 375.702 27.0797H372.209Z" fill="#FFD43D"/>
</svg>
