<svg width="391" height="50" viewBox="0 0 391 50" fill="none" xmlns="http://www.w3.org/2000/svg">
<path d="M0.464844 0H44.0379V12.6955H16.9426V21.5271H39.9012V32.4287H16.9426V49.402H0.464844V0Z" fill="white"/>
<path d="M53.3359 0H69.8137V49.402H53.3359V0Z" fill="white"/>
<path d="M81.43 0H108.939C114.822 0 119.97 1.03496 124.383 3.10488C128.795 5.12879 132.196 8.00368 134.586 11.7295C137.022 15.4554 138.24 19.7792 138.24 24.701C138.24 29.6228 137.022 33.9466 134.586 37.6725C132.196 41.3983 128.795 44.2962 124.383 46.3661C119.97 48.3901 114.822 49.402 108.939 49.402H81.43V0ZM107.698 37.4655C112.064 37.4655 115.535 36.3385 118.109 34.0846C120.729 31.7847 122.038 28.6569 122.038 24.701C122.038 20.7452 120.729 17.6403 118.109 15.3864C115.535 13.0865 112.064 11.9365 107.698 11.9365H97.4252V37.4655H107.698Z" fill="white"/>
<path d="M148.44 0H192.082V11.4535H164.366V19.3192H189.324V29.1858H164.366V37.9485H192.772V49.402H148.44V0Z" fill="white"/>
<path d="M202.321 0H218.799V36.4305H242.861V49.402H202.321V0Z" fill="white"/>
<path d="M252.162 0H268.64V49.402H252.162V0Z" fill="white"/>
<path d="M294.183 12.6955H277.637V0H327.208V12.6955H310.661V49.402H294.183V12.6955Z" fill="white"/>
<path d="M353.392 32.5667L332.778 0H350.083L361.596 20.2852L372.49 0H390.002L369.801 32.5667V49.402H353.392V32.5667Z" fill="white"/>
</svg>
