<svg width="450" height="1866" viewBox="0 0 450 1866" fill="none" xmlns="http://www.w3.org/2000/svg">
<rect x="1" y="1" width="448" height="1864" rx="19" stroke="white" stroke-width="2"/>
<path d="M90.8065 1734H94.5565V1725.06H106.047V1722.15H94.5565V1715.88H107.817V1712.76H90.8065V1734ZM136.807 1734.6C138.457 1734.6 139.927 1733.7 140.887 1732.5L139.507 1730.55C139.057 1731.33 138.367 1731.87 137.707 1731.87C137.077 1731.87 136.657 1731.39 136.417 1730.73L135.157 1727.4C134.737 1726.29 134.017 1725.39 133.207 1724.88C136.507 1724.4 138.847 1722.03 138.847 1719.09C138.847 1715.4 135.517 1712.76 130.867 1712.76H117.967V1734H121.717V1725.57H128.467C129.697 1725.57 130.927 1726.47 131.497 1727.85L133.057 1731.9C133.657 1733.43 134.857 1734.6 136.807 1734.6ZM121.717 1722.66V1715.73H130.447C133.177 1715.73 135.127 1717.08 135.127 1719.24C135.127 1721.22 133.147 1722.66 130.447 1722.66H121.717ZM150.517 1734H168.637V1730.97H154.147V1724.49H167.137V1721.67H154.147V1715.79H168.337V1712.76H150.517V1734ZM195.54 1738.62C193.8 1738.62 192.63 1737.39 192.63 1735.56V1734.66C199.5 1734.06 204.15 1729.59 204.15 1723.38C204.15 1716.72 198.75 1712.04 191.01 1712.04C183.27 1712.04 177.87 1716.72 177.87 1723.38C177.87 1729.53 182.43 1733.94 189.18 1734.63V1736.01C189.18 1739.19 191.79 1741.5 195.39 1741.5C198.36 1741.5 200.94 1739.94 201.87 1737.75L199.35 1736.1C198.6 1737.6 197.16 1738.62 195.54 1738.62ZM181.62 1723.38C181.62 1718.55 185.52 1715.19 191.01 1715.19C196.5 1715.19 200.4 1718.55 200.4 1723.38C200.4 1728.21 196.5 1731.6 191.01 1731.6C185.52 1731.6 181.62 1728.21 181.62 1723.38ZM225.147 1734.72C231.297 1734.72 235.707 1730.97 235.707 1724.88V1712.76H231.987V1724.85C231.987 1729.05 229.167 1731.6 225.177 1731.6C221.127 1731.57 218.337 1728.87 218.337 1724.85V1712.76H214.587V1724.88C214.587 1730.97 218.997 1734.72 225.147 1734.72ZM246.676 1734H264.796V1730.97H250.306V1724.49H263.296V1721.67H250.306V1715.79H264.496V1712.76H246.676V1734ZM275.066 1734H278.726V1716.96L291.386 1734H296.066V1712.76H292.406V1729.8L279.746 1712.76H275.066V1734ZM319.775 1734.72C325.775 1734.72 330.725 1731.3 331.805 1726.47L328.295 1725.63C327.515 1729.11 324.035 1731.6 319.805 1731.6C314.405 1731.6 310.505 1728.15 310.505 1723.38C310.505 1718.61 314.045 1715.19 319.025 1715.19C322.595 1715.19 325.625 1717.11 326.555 1719.96L329.975 1719C328.595 1714.92 324.155 1712.04 318.995 1712.04C311.915 1712.04 306.755 1716.78 306.755 1723.38C306.755 1729.98 312.215 1734.72 319.775 1734.72ZM347.877 1734H351.597V1726.44L360.687 1712.76H356.397L349.737 1723.2L342.957 1712.76H338.697L347.877 1726.44V1734Z" fill="white"/>
<g filter="url(#filter0_i_1_14)">
<rect x="215" y="1005" width="20" height="600" rx="10" fill="#181818"/>
</g>
<rect x="250" y="1016" width="50" height="3" fill="#6E6E6E"/>
<rect x="250" y="1131" width="50" height="3" fill="#6E6E6E"/>
<rect x="250" y="1039" width="30" height="3" fill="#6E6E6E"/>
<rect x="250" y="1062" width="30" height="3" fill="#6E6E6E"/>
<rect x="250" y="1085" width="30" height="3" fill="#6E6E6E"/>
<rect x="250" y="1108" width="30" height="3" fill="#6E6E6E"/>
<rect x="250" y="1246" width="50" height="3" fill="#6E6E6E"/>
<rect x="250" y="1361" width="50" height="3" fill="#6E6E6E"/>
<rect x="250" y="1476" width="50" height="3" fill="#6E6E6E"/>
<rect x="250" y="1591" width="50" height="3" fill="#6E6E6E"/>
<rect x="250" y="1154" width="30" height="3" fill="#6E6E6E"/>
<rect x="250" y="1269" width="30" height="3" fill="#6E6E6E"/>
<rect x="250" y="1384" width="30" height="3" fill="#6E6E6E"/>
<rect x="250" y="1499" width="30" height="3" fill="#6E6E6E"/>
<rect x="250" y="1177" width="30" height="3" fill="#6E6E6E"/>
<rect x="250" y="1292" width="30" height="3" fill="#6E6E6E"/>
<rect x="250" y="1407" width="30" height="3" fill="#6E6E6E"/>
<rect x="250" y="1522" width="30" height="3" fill="#6E6E6E"/>
<rect x="250" y="1200" width="30" height="3" fill="#6E6E6E"/>
<rect x="250" y="1315" width="30" height="3" fill="#6E6E6E"/>
<rect x="250" y="1430" width="30" height="3" fill="#6E6E6E"/>
<rect x="250" y="1545" width="30" height="3" fill="#6E6E6E"/>
<rect x="250" y="1223" width="30" height="3" fill="#6E6E6E"/>
<rect x="250" y="1338" width="30" height="3" fill="#6E6E6E"/>
<rect x="250" y="1453" width="30" height="3" fill="#6E6E6E"/>
<rect x="250" y="1568" width="30" height="3" fill="#6E6E6E"/>
<rect width="50" height="3" transform="matrix(-1 0 0 1 200 1016)" fill="#6E6E6E"/>
<rect width="50" height="3" transform="matrix(-1 0 0 1 200 1131)" fill="#6E6E6E"/>
<rect width="30" height="3" transform="matrix(-1 0 0 1 200 1039)" fill="#6E6E6E"/>
<rect width="30" height="3" transform="matrix(-1 0 0 1 200 1062)" fill="#6E6E6E"/>
<rect width="30" height="3" transform="matrix(-1 0 0 1 200 1085)" fill="#6E6E6E"/>
<rect width="30" height="3" transform="matrix(-1 0 0 1 200 1108)" fill="#6E6E6E"/>
<rect width="50" height="3" transform="matrix(-1 0 0 1 200 1246)" fill="#6E6E6E"/>
<rect width="50" height="3" transform="matrix(-1 0 0 1 200 1361)" fill="#6E6E6E"/>
<rect width="50" height="3" transform="matrix(-1 0 0 1 200 1476)" fill="#6E6E6E"/>
<rect width="50" height="3" transform="matrix(-1 0 0 1 200 1591)" fill="#6E6E6E"/>
<rect width="30" height="3" transform="matrix(-1 0 0 1 200 1154)" fill="#6E6E6E"/>
<rect width="30" height="3" transform="matrix(-1 0 0 1 200 1269)" fill="#6E6E6E"/>
<rect width="30" height="3" transform="matrix(-1 0 0 1 200 1384)" fill="#6E6E6E"/>
<rect width="30" height="3" transform="matrix(-1 0 0 1 200 1499)" fill="#6E6E6E"/>
<rect width="30" height="3" transform="matrix(-1 0 0 1 200 1177)" fill="#6E6E6E"/>
<rect width="30" height="3" transform="matrix(-1 0 0 1 200 1292)" fill="#6E6E6E"/>
<rect width="30" height="3" transform="matrix(-1 0 0 1 200 1407)" fill="#6E6E6E"/>
<rect width="30" height="3" transform="matrix(-1 0 0 1 200 1522)" fill="#6E6E6E"/>
<rect width="30" height="3" transform="matrix(-1 0 0 1 200 1200)" fill="#6E6E6E"/>
<rect width="30" height="3" transform="matrix(-1 0 0 1 200 1315)" fill="#6E6E6E"/>
<rect width="30" height="3" transform="matrix(-1 0 0 1 200 1430)" fill="#6E6E6E"/>
<rect width="30" height="3" transform="matrix(-1 0 0 1 200 1545)" fill="#6E6E6E"/>
<rect width="30" height="3" transform="matrix(-1 0 0 1 200 1223)" fill="#6E6E6E"/>
<rect width="30" height="3" transform="matrix(-1 0 0 1 200 1338)" fill="#6E6E6E"/>
<rect width="30" height="3" transform="matrix(-1 0 0 1 200 1453)" fill="#6E6E6E"/>
<rect width="30" height="3" transform="matrix(-1 0 0 1 200 1568)" fill="#6E6E6E"/>
<g filter="url(#filter1_d_1_14)">
<rect x="177" y="1192" width="96" height="140" rx="15" fill="url(#paint0_linear_1_14)"/>
<rect x="178.5" y="1193.5" width="93" height="137" rx="13.5" stroke="url(#paint1_linear_1_14)" stroke-width="3"/>
</g>
<rect x="177" y="1257" width="96" height="10" fill="#BCBCBC"/>
<g opacity="0.45" filter="url(#filter2_i_1_14)">
<rect x="177" y="1217" width="96" height="5" fill="#424242"/>
</g>
<g opacity="0.45" filter="url(#filter3_i_1_14)">
<rect x="177" y="1227" width="96" height="5" fill="#424242"/>
</g>
<g opacity="0.45" filter="url(#filter4_i_1_14)">
<rect x="177" y="1237" width="96" height="5" fill="#424242"/>
</g>
<g opacity="0.45" filter="url(#filter5_i_1_14)">
<rect x="177" y="1282" width="96" height="5" fill="#424242"/>
</g>
<g opacity="0.45" filter="url(#filter6_i_1_14)">
<rect x="177" y="1292" width="96" height="5" fill="#424242"/>
</g>
<g opacity="0.45" filter="url(#filter7_i_1_14)">
<rect x="177" y="1302" width="96" height="5" fill="#424242"/>
</g>
<path d="M169.81 873H183.04C187.39 873 190.54 870.48 190.54 867.03C190.54 864.69 188.95 862.62 186.79 862.11C188.62 861.6 189.97 859.74 189.97 857.61C189.97 854.22 187 851.76 182.92 851.76H169.81V873ZM173.56 860.7V854.67H182.29C184.6 854.67 186.25 855.93 186.25 857.7C186.25 859.47 184.6 860.7 182.29 860.7H173.56ZM173.56 870.09V863.49H182.32C184.93 863.49 186.82 864.87 186.82 866.76C186.82 868.71 184.93 870.09 182.32 870.09H173.56ZM198.812 873H202.772L204.872 868.29H216.302L218.402 873H222.332L212.822 851.76H208.412L198.812 873ZM205.982 865.38L210.602 854.91L215.222 865.38H205.982ZM241.686 873.72C247.326 873.72 251.196 870.9 251.196 866.85C251.196 862.17 246.276 861.27 241.746 860.58C238.356 860.01 235.296 859.53 235.296 857.28C235.296 855.42 237.456 854.04 240.486 854.04C243.606 854.04 246.156 855.57 246.996 857.76L249.726 856.23C248.526 853.17 244.896 851.04 240.456 851.04C235.296 851.04 231.606 853.65 231.606 857.7C231.606 862.41 236.436 863.19 240.936 863.88C244.416 864.48 247.506 864.99 247.506 867.27C247.506 869.19 245.256 870.72 241.776 870.72C237.666 870.72 234.126 868.59 233.376 865.68L230.406 867.06C231.636 870.93 236.166 873.72 241.686 873.72ZM271.688 873.72C277.328 873.72 281.198 870.9 281.198 866.85C281.198 862.17 276.278 861.27 271.748 860.58C268.358 860.01 265.298 859.53 265.298 857.28C265.298 855.42 267.458 854.04 270.488 854.04C273.608 854.04 276.158 855.57 276.998 857.76L279.728 856.23C278.528 853.17 274.898 851.04 270.458 851.04C265.298 851.04 261.608 853.65 261.608 857.7C261.608 862.41 266.438 863.19 270.938 863.88C274.418 864.48 277.508 864.99 277.508 867.27C277.508 869.19 275.258 870.72 271.778 870.72C267.668 870.72 264.128 868.59 263.378 865.68L260.408 867.06C261.638 870.93 266.168 873.72 271.688 873.72Z" fill="white"/>
<g filter="url(#filter8_d_1_14)">
<circle cx="225" cy="710" r="100" fill="url(#paint2_linear_1_14)"/>
<circle cx="225" cy="710" r="98.5" stroke="url(#paint3_linear_1_14)" stroke-width="3"/>
</g>
<g filter="url(#filter9_i_1_14)">
<circle cx="267" cy="668" r="16" fill="#4E4E4E"/>
</g>
<path d="M150.753 478H154.473V459.88H162.693V456.76H142.533V459.88H150.753V478ZM191.436 478.6C193.086 478.6 194.556 477.7 195.516 476.5L194.136 474.55C193.686 475.33 192.996 475.87 192.336 475.87C191.706 475.87 191.286 475.39 191.046 474.73L189.786 471.4C189.366 470.29 188.646 469.39 187.836 468.88C191.136 468.4 193.476 466.03 193.476 463.09C193.476 459.4 190.146 456.76 185.496 456.76H172.596V478H176.346V469.57H183.096C184.326 469.57 185.556 470.47 186.126 471.85L187.686 475.9C188.286 477.43 189.486 478.6 191.436 478.6ZM176.346 466.66V459.73H185.076C187.806 459.73 189.756 461.08 189.756 463.24C189.756 465.22 187.776 466.66 185.076 466.66H176.346ZM205.146 478H223.266V474.97H208.776V468.49H221.766V465.67H208.776V459.79H222.966V456.76H205.146V478ZM233.537 478H246.767C251.117 478 254.267 475.48 254.267 472.03C254.267 469.69 252.677 467.62 250.517 467.11C252.347 466.6 253.697 464.74 253.697 462.61C253.697 459.22 250.727 456.76 246.647 456.76H233.537V478ZM237.287 465.7V459.67H246.017C248.327 459.67 249.977 460.93 249.977 462.7C249.977 464.47 248.327 465.7 246.017 465.7H237.287ZM237.287 475.09V468.49H246.047C248.657 468.49 250.547 469.87 250.547 471.76C250.547 473.71 248.657 475.09 246.047 475.09H237.287ZM264.623 478H280.073V474.85H268.373V456.76H264.623V478ZM289.967 478H308.087V474.97H293.597V468.49H306.587V465.67H293.597V459.79H307.787V456.76H289.967V478Z" fill="white"/>
<g filter="url(#filter10_d_1_14)">
<circle cx="225" cy="315" r="100" fill="url(#paint4_linear_1_14)"/>
<circle cx="225" cy="315" r="98.5" stroke="url(#paint5_linear_1_14)" stroke-width="3"/>
</g>
<g filter="url(#filter11_i_1_14)">
<circle cx="199" cy="263" r="16" fill="#4E4E4E"/>
</g>
<rect x="15" y="15" width="420" height="75" rx="10" fill="white"/>
<path d="M119.443 65.735C117.39 65.735 115.441 65.4433 113.598 64.86C111.778 64.2767 110.203 63.4717 108.873 62.445C107.566 61.395 106.621 60.1933 106.038 58.84L110.308 56.425C110.868 57.8017 112.023 58.945 113.773 59.855C115.546 60.7417 117.53 61.185 119.723 61.185C121.45 61.185 122.838 60.905 123.888 60.345C124.961 59.7617 125.498 59.015 125.498 58.105C125.498 57.405 125.206 56.8567 124.623 56.46C124.04 56.04 123.27 55.725 122.313 55.515C121.38 55.2817 120.131 55.06 118.568 54.85C116.141 54.5467 114.158 54.1967 112.618 53.8C111.078 53.38 109.783 52.6683 108.733 51.665C107.683 50.6617 107.158 49.2383 107.158 47.395C107.158 45.7617 107.636 44.3383 108.593 43.125C109.573 41.9117 110.926 40.9783 112.653 40.325C114.403 39.6717 116.398 39.345 118.638 39.345C121.251 39.345 123.573 39.8467 125.603 40.85C127.656 41.83 129.091 43.1483 129.908 44.805L126.163 47.395C125.58 46.2983 124.611 45.435 123.258 44.805C121.905 44.1517 120.4 43.825 118.743 43.825C117.156 43.825 115.861 44.105 114.858 44.665C113.855 45.2017 113.353 45.9017 113.353 46.765C113.353 47.4183 113.645 47.9433 114.228 48.34C114.811 48.7133 115.546 49.005 116.433 49.215C117.32 49.4017 118.556 49.6117 120.143 49.845C122.476 50.125 124.448 50.4867 126.058 50.93C127.691 51.3733 129.033 52.12 130.083 53.17C131.156 54.1967 131.693 55.6083 131.693 57.405C131.693 59.0383 131.168 60.485 130.118 61.745C129.091 63.005 127.645 63.985 125.778 64.685C123.935 65.385 121.823 65.735 119.443 65.735ZM153.348 65.735C150.268 65.735 147.527 65.1867 145.123 64.09C142.743 62.9933 140.888 61.4533 139.558 59.47C138.228 57.4633 137.563 55.1533 137.563 52.54C137.563 49.95 138.228 47.6633 139.558 45.68C140.888 43.6733 142.743 42.1217 145.123 41.025C147.527 39.905 150.268 39.345 153.348 39.345C156.428 39.345 159.158 39.905 161.538 41.025C163.942 42.1217 165.797 43.6733 167.103 45.68C168.433 47.6633 169.098 49.95 169.098 52.54C169.098 55.1533 168.433 57.4633 167.103 59.47C165.797 61.4533 163.942 62.9933 161.538 64.09C159.158 65.1867 156.428 65.735 153.348 65.735ZM153.348 60.695C155.168 60.695 156.79 60.3567 158.213 59.68C159.66 58.98 160.78 58.0233 161.573 56.81C162.367 55.5733 162.763 54.15 162.763 52.54C162.763 50.93 162.367 49.5067 161.573 48.27C160.78 47.0333 159.66 46.0767 158.213 45.4C156.79 44.7233 155.168 44.385 153.348 44.385C151.505 44.385 149.86 44.7233 148.413 45.4C146.99 46.0767 145.882 47.0333 145.088 48.27C144.295 49.5067 143.898 50.93 143.898 52.54C143.898 54.15 144.295 55.5733 145.088 56.81C145.882 58.0233 146.99 58.98 148.413 59.68C149.86 60.3567 151.505 60.695 153.348 60.695ZM188.98 65.735C186.414 65.735 184.127 65.2683 182.12 64.335C180.137 63.4017 178.585 62.06 177.465 60.31C176.369 58.5367 175.82 56.46 175.82 54.08V40.08H182.19V53.94C182.19 55.2467 182.47 56.4133 183.03 57.44C183.59 58.4433 184.384 59.2367 185.41 59.82C186.437 60.4033 187.627 60.695 188.98 60.695C191.01 60.695 192.644 60.0883 193.88 58.875C195.14 57.6617 195.77 56.0167 195.77 53.94V40.08H202.105V54.08C202.105 56.46 201.545 58.5367 200.425 60.31C199.329 62.06 197.789 63.4017 195.805 64.335C193.822 65.2683 191.547 65.735 188.98 65.735ZM232.071 65.7C230.764 65.7 229.667 65.3617 228.781 64.685C227.894 63.985 227.206 63.0867 226.716 61.99L225.211 58.245C224.861 57.475 224.371 56.8683 223.741 56.425C223.134 55.9817 222.469 55.76 221.746 55.76H215.831V65H209.496V40.08H225.456C227.369 40.08 229.072 40.4183 230.566 41.095C232.082 41.7483 233.249 42.67 234.066 43.86C234.906 45.0267 235.326 46.3567 235.326 47.85C235.326 49.5767 234.742 51.0583 233.576 52.295C232.432 53.5083 230.916 54.3017 229.026 54.675C229.959 55.1883 230.671 56.0633 231.161 57.3L232.526 60.45C232.876 61.29 233.377 61.71 234.031 61.71C234.381 61.71 234.719 61.605 235.046 61.395C235.396 61.185 235.699 60.905 235.956 60.555L237.426 63.46C236.796 64.1133 235.991 64.65 235.011 65.07C234.054 65.49 233.074 65.7 232.071 65.7ZM224.266 51.56C225.619 51.56 226.739 51.2333 227.626 50.58C228.536 49.9267 228.991 49.0867 228.991 48.06C228.991 46.9867 228.547 46.1233 227.661 45.47C226.774 44.8167 225.642 44.49 224.266 44.49H215.831V51.56H224.266ZM257.458 65.735C254.472 65.735 251.788 65.175 249.408 64.055C247.052 62.935 245.197 61.3717 243.843 59.365C242.513 57.3583 241.848 55.0833 241.848 52.54C241.848 49.9967 242.478 47.7217 243.738 45.715C244.998 43.7083 246.748 42.145 248.988 41.025C251.228 39.905 253.76 39.345 256.583 39.345C258.73 39.345 260.725 39.7067 262.568 40.43C264.435 41.13 266.01 42.1333 267.293 43.44C268.6 44.7233 269.487 46.205 269.953 47.885L264.178 49.32C263.735 47.8267 262.825 46.6367 261.448 45.75C260.072 44.84 258.473 44.385 256.653 44.385C255.02 44.385 253.562 44.735 252.278 45.435C250.995 46.1117 249.992 47.0683 249.268 48.305C248.545 49.5417 248.183 50.9533 248.183 52.54C248.183 54.1267 248.592 55.5383 249.408 56.775C250.225 58.0117 251.333 58.98 252.733 59.68C254.157 60.3567 255.767 60.695 257.563 60.695C258.987 60.695 260.305 60.4383 261.518 59.925C262.755 59.4117 263.782 58.7 264.598 57.79C265.415 56.88 265.952 55.83 266.208 54.64L272.088 55.725C271.715 57.6617 270.84 59.3883 269.463 60.905C268.11 62.4217 266.383 63.6117 264.283 64.475C262.183 65.315 259.908 65.735 257.458 65.735ZM278.643 40.08H300.098V44.735H284.768V50.195H298.698V54.325H284.768V60.345H300.448V65H278.643V40.08ZM324.621 60.415H332.881L332.846 46.45C332.286 47.29 331.505 48.0133 330.501 48.62C329.521 49.2033 328.296 49.74 326.826 50.23L325.286 45.26C329.066 44.3033 331.726 42.5767 333.266 40.08H339.111V60.415H345.516V65H324.621V60.415Z" fill="#313131"/>
<defs>
<filter id="filter0_i_1_14" x="215" y="1005" width="20" height="602" filterUnits="userSpaceOnUse" color-interpolation-filters="sRGB">
<feFlood flood-opacity="0" result="BackgroundImageFix"/>
<feBlend mode="normal" in="SourceGraphic" in2="BackgroundImageFix" result="shape"/>
<feColorMatrix in="SourceAlpha" type="matrix" values="0 0 0 0 0 0 0 0 0 0 0 0 0 0 0 0 0 0 127 0" result="hardAlpha"/>
<feOffset dy="4"/>
<feGaussianBlur stdDeviation="1"/>
<feComposite in2="hardAlpha" operator="arithmetic" k2="-1" k3="1"/>
<feColorMatrix type="matrix" values="0 0 0 0 0 0 0 0 0 0 0 0 0 0 0 0 0 0 0.6 0"/>
<feBlend mode="normal" in2="shape" result="effect1_innerShadow_1_14"/>
</filter>
<filter id="filter1_d_1_14" x="142" y="1182" width="166" height="210" filterUnits="userSpaceOnUse" color-interpolation-filters="sRGB">
<feFlood flood-opacity="0" result="BackgroundImageFix"/>
<feColorMatrix in="SourceAlpha" type="matrix" values="0 0 0 0 0 0 0 0 0 0 0 0 0 0 0 0 0 0 127 0" result="hardAlpha"/>
<feOffset dy="25"/>
<feGaussianBlur stdDeviation="17.5"/>
<feColorMatrix type="matrix" values="0 0 0 0 0 0 0 0 0 0 0 0 0 0 0 0 0 0 0.55 0"/>
<feBlend mode="normal" in2="BackgroundImageFix" result="effect1_dropShadow_1_14"/>
<feBlend mode="normal" in="SourceGraphic" in2="effect1_dropShadow_1_14" result="shape"/>
</filter>
<filter id="filter2_i_1_14" x="177" y="1217" width="96" height="6" filterUnits="userSpaceOnUse" color-interpolation-filters="sRGB">
<feFlood flood-opacity="0" result="BackgroundImageFix"/>
<feBlend mode="normal" in="SourceGraphic" in2="BackgroundImageFix" result="shape"/>
<feColorMatrix in="SourceAlpha" type="matrix" values="0 0 0 0 0 0 0 0 0 0 0 0 0 0 0 0 0 0 127 0" result="hardAlpha"/>
<feOffset dy="1"/>
<feGaussianBlur stdDeviation="1"/>
<feComposite in2="hardAlpha" operator="arithmetic" k2="-1" k3="1"/>
<feColorMatrix type="matrix" values="0 0 0 0 0 0 0 0 0 0 0 0 0 0 0 0 0 0 0.8 0"/>
<feBlend mode="normal" in2="shape" result="effect1_innerShadow_1_14"/>
</filter>
<filter id="filter3_i_1_14" x="177" y="1227" width="96" height="6" filterUnits="userSpaceOnUse" color-interpolation-filters="sRGB">
<feFlood flood-opacity="0" result="BackgroundImageFix"/>
<feBlend mode="normal" in="SourceGraphic" in2="BackgroundImageFix" result="shape"/>
<feColorMatrix in="SourceAlpha" type="matrix" values="0 0 0 0 0 0 0 0 0 0 0 0 0 0 0 0 0 0 127 0" result="hardAlpha"/>
<feOffset dy="1"/>
<feGaussianBlur stdDeviation="1"/>
<feComposite in2="hardAlpha" operator="arithmetic" k2="-1" k3="1"/>
<feColorMatrix type="matrix" values="0 0 0 0 0 0 0 0 0 0 0 0 0 0 0 0 0 0 0.8 0"/>
<feBlend mode="normal" in2="shape" result="effect1_innerShadow_1_14"/>
</filter>
<filter id="filter4_i_1_14" x="177" y="1237" width="96" height="6" filterUnits="userSpaceOnUse" color-interpolation-filters="sRGB">
<feFlood flood-opacity="0" result="BackgroundImageFix"/>
<feBlend mode="normal" in="SourceGraphic" in2="BackgroundImageFix" result="shape"/>
<feColorMatrix in="SourceAlpha" type="matrix" values="0 0 0 0 0 0 0 0 0 0 0 0 0 0 0 0 0 0 127 0" result="hardAlpha"/>
<feOffset dy="1"/>
<feGaussianBlur stdDeviation="1"/>
<feComposite in2="hardAlpha" operator="arithmetic" k2="-1" k3="1"/>
<feColorMatrix type="matrix" values="0 0 0 0 0 0 0 0 0 0 0 0 0 0 0 0 0 0 0.8 0"/>
<feBlend mode="normal" in2="shape" result="effect1_innerShadow_1_14"/>
</filter>
<filter id="filter5_i_1_14" x="177" y="1282" width="96" height="6" filterUnits="userSpaceOnUse" color-interpolation-filters="sRGB">
<feFlood flood-opacity="0" result="BackgroundImageFix"/>
<feBlend mode="normal" in="SourceGraphic" in2="BackgroundImageFix" result="shape"/>
<feColorMatrix in="SourceAlpha" type="matrix" values="0 0 0 0 0 0 0 0 0 0 0 0 0 0 0 0 0 0 127 0" result="hardAlpha"/>
<feOffset dy="1"/>
<feGaussianBlur stdDeviation="1"/>
<feComposite in2="hardAlpha" operator="arithmetic" k2="-1" k3="1"/>
<feColorMatrix type="matrix" values="0 0 0 0 0 0 0 0 0 0 0 0 0 0 0 0 0 0 0.8 0"/>
<feBlend mode="normal" in2="shape" result="effect1_innerShadow_1_14"/>
</filter>
<filter id="filter6_i_1_14" x="177" y="1292" width="96" height="6" filterUnits="userSpaceOnUse" color-interpolation-filters="sRGB">
<feFlood flood-opacity="0" result="BackgroundImageFix"/>
<feBlend mode="normal" in="SourceGraphic" in2="BackgroundImageFix" result="shape"/>
<feColorMatrix in="SourceAlpha" type="matrix" values="0 0 0 0 0 0 0 0 0 0 0 0 0 0 0 0 0 0 127 0" result="hardAlpha"/>
<feOffset dy="1"/>
<feGaussianBlur stdDeviation="1"/>
<feComposite in2="hardAlpha" operator="arithmetic" k2="-1" k3="1"/>
<feColorMatrix type="matrix" values="0 0 0 0 0 0 0 0 0 0 0 0 0 0 0 0 0 0 0.8 0"/>
<feBlend mode="normal" in2="shape" result="effect1_innerShadow_1_14"/>
</filter>
<filter id="filter7_i_1_14" x="177" y="1302" width="96" height="6" filterUnits="userSpaceOnUse" color-interpolation-filters="sRGB">
<feFlood flood-opacity="0" result="BackgroundImageFix"/>
<feBlend mode="normal" in="SourceGraphic" in2="BackgroundImageFix" result="shape"/>
<feColorMatrix in="SourceAlpha" type="matrix" values="0 0 0 0 0 0 0 0 0 0 0 0 0 0 0 0 0 0 127 0" result="hardAlpha"/>
<feOffset dy="1"/>
<feGaussianBlur stdDeviation="1"/>
<feComposite in2="hardAlpha" operator="arithmetic" k2="-1" k3="1"/>
<feColorMatrix type="matrix" values="0 0 0 0 0 0 0 0 0 0 0 0 0 0 0 0 0 0 0.8 0"/>
<feBlend mode="normal" in2="shape" result="effect1_innerShadow_1_14"/>
</filter>
<filter id="filter8_d_1_14" x="75" y="595" width="300" height="300" filterUnits="userSpaceOnUse" color-interpolation-filters="sRGB">
<feFlood flood-opacity="0" result="BackgroundImageFix"/>
<feColorMatrix in="SourceAlpha" type="matrix" values="0 0 0 0 0 0 0 0 0 0 0 0 0 0 0 0 0 0 127 0" result="hardAlpha"/>
<feOffset dy="35"/>
<feGaussianBlur stdDeviation="25"/>
<feColorMatrix type="matrix" values="0 0 0 0 0 0 0 0 0 0 0 0 0 0 0 0 0 0 0.45 0"/>
<feBlend mode="normal" in2="BackgroundImageFix" result="effect1_dropShadow_1_14"/>
<feBlend mode="normal" in="SourceGraphic" in2="effect1_dropShadow_1_14" result="shape"/>
</filter>
<filter id="filter9_i_1_14" x="251" y="652" width="32" height="44" filterUnits="userSpaceOnUse" color-interpolation-filters="sRGB">
<feFlood flood-opacity="0" result="BackgroundImageFix"/>
<feBlend mode="normal" in="SourceGraphic" in2="BackgroundImageFix" result="shape"/>
<feColorMatrix in="SourceAlpha" type="matrix" values="0 0 0 0 0 0 0 0 0 0 0 0 0 0 0 0 0 0 127 0" result="hardAlpha"/>
<feOffset dy="12"/>
<feGaussianBlur stdDeviation="10"/>
<feComposite in2="hardAlpha" operator="arithmetic" k2="-1" k3="1"/>
<feColorMatrix type="matrix" values="0 0 0 0 0 0 0 0 0 0 0 0 0 0 0 0 0 0 0.6 0"/>
<feBlend mode="normal" in2="shape" result="effect1_innerShadow_1_14"/>
</filter>
<filter id="filter10_d_1_14" x="75" y="200" width="300" height="300" filterUnits="userSpaceOnUse" color-interpolation-filters="sRGB">
<feFlood flood-opacity="0" result="BackgroundImageFix"/>
<feColorMatrix in="SourceAlpha" type="matrix" values="0 0 0 0 0 0 0 0 0 0 0 0 0 0 0 0 0 0 127 0" result="hardAlpha"/>
<feOffset dy="35"/>
<feGaussianBlur stdDeviation="25"/>
<feColorMatrix type="matrix" values="0 0 0 0 0 0 0 0 0 0 0 0 0 0 0 0 0 0 0.45 0"/>
<feBlend mode="normal" in2="BackgroundImageFix" result="effect1_dropShadow_1_14"/>
<feBlend mode="normal" in="SourceGraphic" in2="effect1_dropShadow_1_14" result="shape"/>
</filter>
<filter id="filter11_i_1_14" x="183" y="247" width="32" height="44" filterUnits="userSpaceOnUse" color-interpolation-filters="sRGB">
<feFlood flood-opacity="0" result="BackgroundImageFix"/>
<feBlend mode="normal" in="SourceGraphic" in2="BackgroundImageFix" result="shape"/>
<feColorMatrix in="SourceAlpha" type="matrix" values="0 0 0 0 0 0 0 0 0 0 0 0 0 0 0 0 0 0 127 0" result="hardAlpha"/>
<feOffset dy="12"/>
<feGaussianBlur stdDeviation="10"/>
<feComposite in2="hardAlpha" operator="arithmetic" k2="-1" k3="1"/>
<feColorMatrix type="matrix" values="0 0 0 0 0 0 0 0 0 0 0 0 0 0 0 0 0 0 0.6 0"/>
<feBlend mode="normal" in2="shape" result="effect1_innerShadow_1_14"/>
</filter>
<linearGradient id="paint0_linear_1_14" x1="225" y1="1192" x2="225" y2="1332" gradientUnits="userSpaceOnUse">
<stop stop-color="#202020"/>
<stop offset="1" stop-color="#4B4B4B"/>
</linearGradient>
<linearGradient id="paint1_linear_1_14" x1="225" y1="1192" x2="225" y2="1332" gradientUnits="userSpaceOnUse">
<stop stop-color="#606060"/>
<stop offset="0.140625" stop-color="#0E0E0E" stop-opacity="0"/>
<stop offset="0.484375" stop-color="#0E0E0E" stop-opacity="0"/>
<stop offset="0.864583" stop-color="#0E0E0E" stop-opacity="0"/>
<stop offset="1" stop-color="#0E0E0E"/>
</linearGradient>
<linearGradient id="paint2_linear_1_14" x1="225" y1="610" x2="225" y2="810" gradientUnits="userSpaceOnUse">
<stop stop-color="#4B4B4B"/>
<stop offset="1" stop-color="#202020"/>
</linearGradient>
<linearGradient id="paint3_linear_1_14" x1="225" y1="610" x2="225" y2="810" gradientUnits="userSpaceOnUse">
<stop stop-color="#606060"/>
<stop offset="1" stop-color="#0E0E0E"/>
</linearGradient>
<linearGradient id="paint4_linear_1_14" x1="225" y1="215" x2="225" y2="415" gradientUnits="userSpaceOnUse">
<stop stop-color="#4B4B4B"/>
<stop offset="1" stop-color="#202020"/>
</linearGradient>
<linearGradient id="paint5_linear_1_14" x1="225" y1="215" x2="225" y2="415" gradientUnits="userSpaceOnUse">
<stop stop-color="#606060"/>
<stop offset="1" stop-color="#0E0E0E"/>
</linearGradient>
</defs>
</svg>
