<svg width="1257" height="506" viewBox="0 0 1257 506" fill="none" xmlns="http://www.w3.org/2000/svg">
<rect x="1" y="1" width="1255" height="504" rx="19" stroke="white" stroke-width="2"/>
<path d="M985.162 428.72C991.162 428.72 996.112 425.3 997.192 420.47L993.682 419.63C992.902 423.11 989.422 425.6 985.192 425.6C979.792 425.6 975.892 422.15 975.892 417.38C975.892 412.61 979.432 409.19 984.412 409.19C987.982 409.19 991.012 411.11 991.942 413.96L995.362 413C993.982 408.92 989.542 406.04 984.382 406.04C977.302 406.04 972.142 410.78 972.142 417.38C972.142 423.98 977.602 428.72 985.162 428.72ZM1020.09 428.72C1027.83 428.72 1033.23 424.07 1033.23 417.38C1033.23 410.72 1027.83 406.04 1020.09 406.04C1012.35 406.04 1006.95 410.72 1006.95 417.38C1006.95 424.07 1012.35 428.72 1020.09 428.72ZM1020.09 425.6C1014.6 425.6 1010.7 422.21 1010.7 417.38C1010.7 412.55 1014.6 409.19 1020.09 409.19C1025.58 409.19 1029.48 412.55 1029.48 417.38C1029.48 422.21 1025.58 425.6 1020.09 425.6ZM1043.94 428H1047.63V420.47H1056.24C1060.92 420.47 1064.28 417.62 1064.28 413.63C1064.28 409.55 1060.8 406.76 1056.24 406.76H1043.94V428ZM1047.63 417.53V409.7H1055.7C1058.55 409.7 1060.59 411.32 1060.56 413.63C1060.56 415.88 1058.52 417.53 1055.7 417.53H1047.63ZM1081 428H1084.72V420.44L1093.81 406.76H1089.52L1082.86 417.2L1076.08 406.76H1071.82L1081 420.44V428Z" fill="white"/>
<g filter="url(#filter0_d_4_49)">
<circle cx="1032" cy="265" r="100" fill="url(#paint0_linear_4_49)"/>
<circle cx="1032" cy="265" r="98.5" stroke="url(#paint1_linear_4_49)" stroke-width="3"/>
</g>
<g filter="url(#filter1_i_4_49)">
<circle cx="974" cy="273" r="16" fill="#4E4E4E"/>
</g>
<g filter="url(#filter2_dii_4_49)">
<rect x="652" y="190" width="115" height="135" rx="10" fill="#02C0B5"/>
<rect x="650.5" y="188.5" width="118" height="138" rx="11.5" stroke="url(#paint2_linear_4_49)" stroke-opacity="0.6" stroke-width="3"/>
</g>
<path d="M639.499 398H643.219V379.88H651.439V376.76H631.279V379.88H639.499V398ZM656.943 398H660.903L663.003 393.29H674.433L676.533 398H680.463L670.953 376.76H666.543L656.943 398ZM664.113 390.38L668.733 379.91L673.353 390.38H664.113ZM690.289 398H693.979V390.47H702.589C707.269 390.47 710.629 387.62 710.629 383.63C710.629 379.55 707.149 376.76 702.589 376.76H690.289V398ZM693.979 387.53V379.7H702.049C704.899 379.7 706.939 381.32 706.909 383.63C706.909 385.88 704.869 387.53 702.049 387.53H693.979ZM720.789 398H738.909V394.97H724.419V388.49H737.409V385.67H724.419V379.79H738.609V376.76H720.789V398ZM778.719 376.04C774.459 376.04 770.679 378.65 769.509 382.31L772.329 383.87C773.379 380.75 775.869 379.13 778.449 379.13C780.999 379.13 782.829 380.66 782.829 382.76C782.829 385.19 780.399 386.03 777.609 386.84C773.709 387.98 769.029 389.06 768.999 394.22L768.969 398H787.209V395.03H772.749V394.13C772.749 391.28 775.689 390.56 779.199 389.42C782.799 388.37 786.519 387.14 786.519 382.88C786.519 378.89 783.249 376.04 778.719 376.04Z" fill="white"/>
<g filter="url(#filter3_di_4_49)">
<rect x="415" y="190" width="115" height="135" rx="10" fill="#F8474F"/>
<rect x="413.5" y="188.5" width="118" height="138" rx="11.5" stroke="url(#paint3_linear_4_49)" stroke-opacity="0.6" stroke-width="3"/>
</g>
<path d="M404.097 398H407.817V379.88H416.037V376.76H395.877V379.88H404.097V398ZM421.541 398H425.501L427.601 393.29H439.031L441.131 398H445.061L435.551 376.76H431.141L421.541 398ZM428.711 390.38L433.331 379.91L437.951 390.38H428.711ZM454.888 398H458.578V390.47H467.188C471.868 390.47 475.228 387.62 475.228 383.63C475.228 379.55 471.748 376.76 467.188 376.76H454.888V398ZM458.578 387.53V379.7H466.648C469.498 379.7 471.538 381.32 471.508 383.63C471.508 385.88 469.468 387.53 466.648 387.53H458.578ZM485.388 398H503.508V394.97H489.018V388.49H502.008V385.67H489.018V379.79H503.208V376.76H485.388V398ZM533.057 398H550.367V395H544.307V376.76H540.917C539.597 379.04 537.287 380.42 533.957 381.32L534.917 384.56C537.617 383.66 539.597 382.64 540.617 381.17V395H533.057V398Z" fill="white"/>
<g filter="url(#filter4_dii_4_49)">
<rect x="162" y="190" width="115" height="135" rx="10" fill="#2A90DF"/>
<rect x="160.5" y="188.5" width="118" height="138" rx="11.5" stroke="url(#paint4_linear_4_49)" stroke-opacity="0.6" stroke-width="3"/>
</g>
<path d="M139.385 398.72C145.025 398.72 148.895 395.9 148.895 391.85C148.895 387.17 143.975 386.27 139.445 385.58C136.055 385.01 132.995 384.53 132.995 382.28C132.995 380.42 135.155 379.04 138.185 379.04C141.305 379.04 143.855 380.57 144.695 382.76L147.425 381.23C146.225 378.17 142.595 376.04 138.155 376.04C132.995 376.04 129.305 378.65 129.305 382.7C129.305 387.41 134.135 388.19 138.635 388.88C142.115 389.48 145.205 389.99 145.205 392.27C145.205 394.19 142.955 395.72 139.475 395.72C135.365 395.72 131.825 393.59 131.075 390.68L128.105 392.06C129.335 395.93 133.865 398.72 139.385 398.72ZM171.727 398.72C179.467 398.72 184.867 394.07 184.867 387.38C184.867 380.72 179.467 376.04 171.727 376.04C163.987 376.04 158.587 380.72 158.587 387.38C158.587 394.07 163.987 398.72 171.727 398.72ZM171.727 395.6C166.237 395.6 162.337 392.21 162.337 387.38C162.337 382.55 166.237 379.19 171.727 379.19C177.217 379.19 181.117 382.55 181.117 387.38C181.117 392.21 177.217 395.6 171.727 395.6ZM205.864 398.72C212.014 398.72 216.424 394.97 216.424 388.88V376.76H212.704V388.85C212.704 393.05 209.884 395.6 205.894 395.6C201.844 395.57 199.054 392.87 199.054 388.85V376.76H195.304V388.88C195.304 394.97 199.714 398.72 205.864 398.72ZM246.232 398.6C247.882 398.6 249.352 397.7 250.312 396.5L248.932 394.55C248.482 395.33 247.792 395.87 247.132 395.87C246.502 395.87 246.082 395.39 245.842 394.73L244.582 391.4C244.162 390.29 243.442 389.39 242.632 388.88C245.932 388.4 248.272 386.03 248.272 383.09C248.272 379.4 244.942 376.76 240.292 376.76H227.392V398H231.142V389.57H237.892C239.122 389.57 240.352 390.47 240.922 391.85L242.482 395.9C243.082 397.43 244.282 398.6 246.232 398.6ZM231.142 386.66V379.73H239.872C242.602 379.73 244.552 381.08 244.552 383.24C244.552 385.22 242.572 386.66 239.872 386.66H231.142ZM271.398 398.72C277.398 398.72 282.348 395.3 283.428 390.47L279.918 389.63C279.138 393.11 275.658 395.6 271.428 395.6C266.028 395.6 262.128 392.15 262.128 387.38C262.128 382.61 265.668 379.19 270.648 379.19C274.218 379.19 277.248 381.11 278.178 383.96L281.598 383C280.218 378.92 275.778 376.04 270.618 376.04C263.538 376.04 258.378 380.78 258.378 387.38C258.378 393.98 263.838 398.72 271.398 398.72ZM293.724 398H311.844V394.97H297.354V388.49H310.344V385.67H297.354V379.79H311.544V376.76H293.724V398Z" fill="white"/>
<rect x="15" y="15" width="1227" height="75" rx="10" fill="white"/>
<path d="M511.599 45.12H502.604V40.08H526.964V45.12H517.934V65H511.599V45.12ZM539.018 40.08H546.543L557.323 65H550.673L548.643 60.065H536.778L534.713 65H528.098L539.018 40.08ZM547.278 55.795L542.728 44.735L538.143 55.795H547.278ZM563.31 40.08H578.71C580.506 40.08 582.151 40.4183 583.645 41.095C585.161 41.7717 586.363 42.7517 587.25 44.035C588.16 45.295 588.615 46.7767 588.615 48.48C588.615 50.09 588.183 51.525 587.32 52.785C586.48 54.045 585.301 55.025 583.785 55.725C582.291 56.425 580.588 56.775 578.675 56.775H569.61V65H563.31V40.08ZM577.24 52.4C578.71 52.4 579.911 52.0267 580.845 51.28C581.801 50.5333 582.28 49.5767 582.28 48.41C582.28 47.2433 581.801 46.2867 580.845 45.54C579.911 44.7933 578.71 44.42 577.24 44.42H569.61V52.4H577.24ZM595.132 40.08H616.587V44.735H601.257V50.195H615.187V54.325H601.257V60.345H616.937V65H595.132V40.08ZM642.37 40.08H657.77C659.567 40.08 661.212 40.4183 662.705 41.095C664.222 41.7717 665.423 42.7517 666.31 44.035C667.22 45.295 667.675 46.7767 667.675 48.48C667.675 50.09 667.243 51.525 666.38 52.785C665.54 54.045 664.362 55.025 662.845 55.725C661.352 56.425 659.648 56.775 657.735 56.775H648.67V65H642.37V40.08ZM656.3 52.4C657.77 52.4 658.972 52.0267 659.905 51.28C660.862 50.5333 661.34 49.5767 661.34 48.41C661.34 47.2433 660.862 46.2867 659.905 45.54C658.972 44.7933 657.77 44.42 656.3 44.42H648.67V52.4H656.3ZM674.192 40.08H680.527V59.89H693.477V65H674.192V40.08ZM708.999 40.08H716.524L727.304 65H720.654L718.624 60.065H706.759L704.694 65H698.079L708.999 40.08ZM717.259 55.795L712.709 44.735L708.124 55.795H717.259ZM737.941 56.32L727.371 40.08H734.231L741.091 51.315L747.776 40.08H754.706L744.276 56.32V65H737.941V56.32Z" fill="#313131"/>
<defs>
<filter id="filter0_d_4_49" x="882" y="150" width="300" height="300" filterUnits="userSpaceOnUse" color-interpolation-filters="sRGB">
<feFlood flood-opacity="0" result="BackgroundImageFix"/>
<feColorMatrix in="SourceAlpha" type="matrix" values="0 0 0 0 0 0 0 0 0 0 0 0 0 0 0 0 0 0 127 0" result="hardAlpha"/>
<feOffset dy="35"/>
<feGaussianBlur stdDeviation="25"/>
<feColorMatrix type="matrix" values="0 0 0 0 0 0 0 0 0 0 0 0 0 0 0 0 0 0 0.45 0"/>
<feBlend mode="normal" in2="BackgroundImageFix" result="effect1_dropShadow_4_49"/>
<feBlend mode="normal" in="SourceGraphic" in2="effect1_dropShadow_4_49" result="shape"/>
</filter>
<filter id="filter1_i_4_49" x="958" y="257" width="32" height="44" filterUnits="userSpaceOnUse" color-interpolation-filters="sRGB">
<feFlood flood-opacity="0" result="BackgroundImageFix"/>
<feBlend mode="normal" in="SourceGraphic" in2="BackgroundImageFix" result="shape"/>
<feColorMatrix in="SourceAlpha" type="matrix" values="0 0 0 0 0 0 0 0 0 0 0 0 0 0 0 0 0 0 127 0" result="hardAlpha"/>
<feOffset dy="12"/>
<feGaussianBlur stdDeviation="10"/>
<feComposite in2="hardAlpha" operator="arithmetic" k2="-1" k3="1"/>
<feColorMatrix type="matrix" values="0 0 0 0 0 0 0 0 0 0 0 0 0 0 0 0 0 0 0.6 0"/>
<feBlend mode="normal" in2="shape" result="effect1_innerShadow_4_49"/>
</filter>
<filter id="filter2_dii_4_49" x="609" y="172" width="201" height="221" filterUnits="userSpaceOnUse" color-interpolation-filters="sRGB">
<feFlood flood-opacity="0" result="BackgroundImageFix"/>
<feColorMatrix in="SourceAlpha" type="matrix" values="0 0 0 0 0 0 0 0 0 0 0 0 0 0 0 0 0 0 127 0" result="hardAlpha"/>
<feOffset dy="25"/>
<feGaussianBlur stdDeviation="20"/>
<feColorMatrix type="matrix" values="0 0 0 0 0 0 0 0 0 0 0 0 0 0 0 0 0 0 0.5 0"/>
<feBlend mode="normal" in2="BackgroundImageFix" result="effect1_dropShadow_4_49"/>
<feBlend mode="normal" in="SourceGraphic" in2="effect1_dropShadow_4_49" result="shape"/>
<feColorMatrix in="SourceAlpha" type="matrix" values="0 0 0 0 0 0 0 0 0 0 0 0 0 0 0 0 0 0 127 0" result="hardAlpha"/>
<feOffset dy="15"/>
<feGaussianBlur stdDeviation="12.5"/>
<feComposite in2="hardAlpha" operator="arithmetic" k2="-1" k3="1"/>
<feColorMatrix type="matrix" values="0 0 0 0 1 0 0 0 0 1 0 0 0 0 1 0 0 0 0.45 0"/>
<feBlend mode="overlay" in2="shape" result="effect2_innerShadow_4_49"/>
<feColorMatrix in="SourceAlpha" type="matrix" values="0 0 0 0 0 0 0 0 0 0 0 0 0 0 0 0 0 0 127 0" result="hardAlpha"/>
<feOffset dy="-15"/>
<feGaussianBlur stdDeviation="12.5"/>
<feComposite in2="hardAlpha" operator="arithmetic" k2="-1" k3="1"/>
<feColorMatrix type="matrix" values="0 0 0 0 0 0 0 0 0 0 0 0 0 0 0 0 0 0 0.5 0"/>
<feBlend mode="normal" in2="effect2_innerShadow_4_49" result="effect3_innerShadow_4_49"/>
</filter>
<filter id="filter3_di_4_49" x="392" y="172" width="161" height="186" filterUnits="userSpaceOnUse" color-interpolation-filters="sRGB">
<feFlood flood-opacity="0" result="BackgroundImageFix"/>
<feColorMatrix in="SourceAlpha" type="matrix" values="0 0 0 0 0 0 0 0 0 0 0 0 0 0 0 0 0 0 127 0" result="hardAlpha"/>
<feOffset dy="10"/>
<feGaussianBlur stdDeviation="10"/>
<feColorMatrix type="matrix" values="0 0 0 0 0 0 0 0 0 0 0 0 0 0 0 0 0 0 0.2 0"/>
<feBlend mode="normal" in2="BackgroundImageFix" result="effect1_dropShadow_4_49"/>
<feBlend mode="normal" in="SourceGraphic" in2="effect1_dropShadow_4_49" result="shape"/>
<feColorMatrix in="SourceAlpha" type="matrix" values="0 0 0 0 0 0 0 0 0 0 0 0 0 0 0 0 0 0 127 0" result="hardAlpha"/>
<feOffset dy="-15"/>
<feGaussianBlur stdDeviation="12.5"/>
<feComposite in2="hardAlpha" operator="arithmetic" k2="-1" k3="1"/>
<feColorMatrix type="matrix" values="0 0 0 0 0 0 0 0 0 0 0 0 0 0 0 0 0 0 0.2 0"/>
<feBlend mode="normal" in2="shape" result="effect2_innerShadow_4_49"/>
</filter>
<filter id="filter4_dii_4_49" x="104" y="157" width="231" height="251" filterUnits="userSpaceOnUse" color-interpolation-filters="sRGB">
<feFlood flood-opacity="0" result="BackgroundImageFix"/>
<feColorMatrix in="SourceAlpha" type="matrix" values="0 0 0 0 0 0 0 0 0 0 0 0 0 0 0 0 0 0 127 0" result="hardAlpha"/>
<feOffset dy="25"/>
<feGaussianBlur stdDeviation="27.5"/>
<feColorMatrix type="matrix" values="0 0 0 0 0 0 0 0 0 0 0 0 0 0 0 0 0 0 0.5 0"/>
<feBlend mode="normal" in2="BackgroundImageFix" result="effect1_dropShadow_4_49"/>
<feBlend mode="normal" in="SourceGraphic" in2="effect1_dropShadow_4_49" result="shape"/>
<feColorMatrix in="SourceAlpha" type="matrix" values="0 0 0 0 0 0 0 0 0 0 0 0 0 0 0 0 0 0 127 0" result="hardAlpha"/>
<feOffset dy="15"/>
<feGaussianBlur stdDeviation="12.5"/>
<feComposite in2="hardAlpha" operator="arithmetic" k2="-1" k3="1"/>
<feColorMatrix type="matrix" values="0 0 0 0 1 0 0 0 0 1 0 0 0 0 1 0 0 0 0.45 0"/>
<feBlend mode="overlay" in2="shape" result="effect2_innerShadow_4_49"/>
<feColorMatrix in="SourceAlpha" type="matrix" values="0 0 0 0 0 0 0 0 0 0 0 0 0 0 0 0 0 0 127 0" result="hardAlpha"/>
<feOffset dy="-15"/>
<feGaussianBlur stdDeviation="12.5"/>
<feComposite in2="hardAlpha" operator="arithmetic" k2="-1" k3="1"/>
<feColorMatrix type="matrix" values="0 0 0 0 0 0 0 0 0 0 0 0 0 0 0 0 0 0 0.5 0"/>
<feBlend mode="normal" in2="effect2_innerShadow_4_49" result="effect3_innerShadow_4_49"/>
</filter>
<linearGradient id="paint0_linear_4_49" x1="1032" y1="165" x2="1032" y2="365" gradientUnits="userSpaceOnUse">
<stop stop-color="#4B4B4B"/>
<stop offset="1" stop-color="#202020"/>
</linearGradient>
<linearGradient id="paint1_linear_4_49" x1="1032" y1="165" x2="1032" y2="365" gradientUnits="userSpaceOnUse">
<stop stop-color="#606060"/>
<stop offset="1" stop-color="#0E0E0E"/>
</linearGradient>
<linearGradient id="paint2_linear_4_49" x1="709.5" y1="190" x2="709.5" y2="325" gradientUnits="userSpaceOnUse">
<stop stop-color="#242424"/>
<stop offset="1" stop-color="#161616"/>
</linearGradient>
<linearGradient id="paint3_linear_4_49" x1="472.5" y1="190" x2="472.5" y2="325" gradientUnits="userSpaceOnUse">
<stop stop-color="#242424"/>
<stop offset="1" stop-color="#161616"/>
</linearGradient>
<linearGradient id="paint4_linear_4_49" x1="219.5" y1="190" x2="219.5" y2="325" gradientUnits="userSpaceOnUse">
<stop stop-color="#242424"/>
<stop offset="1" stop-color="#161616"/>
</linearGradient>
</defs>
</svg>
